<svg width="16" height="16" viewBox="0 0 16 16" fill="none" xmlns="http://www.w3.org/2000/svg">
<path d="M1.9816 15.1812L7.93309 9.22968L13.8846 15.1812C14.2426 15.5391 14.823 15.5391 15.1809 15.1812C15.5389 14.8232 15.5389 14.2428 15.1809 13.8848L9.22945 7.93331L15.1809 1.98184C15.5389 1.62386 15.5389 1.04346 15.1809 0.685477C14.8229 0.327497 14.2425 0.327497 13.8846 0.685478L7.93309 6.63695L1.98161 0.685478C1.62363 0.327497 1.04323 0.327497 0.68525 0.685477C0.327269 1.04346 0.327269 1.62386 0.68525 1.98184L6.63672 7.93331L0.685234 13.8848C0.327253 14.2428 0.327253 14.8232 0.685234 15.1812C1.04321 15.5391 1.62362 15.5391 1.9816 15.1812Z" fill="black" stroke="black" stroke-width="0.5"/>
</svg>
