<svg width="20" height="22" viewBox="0 0 20 22" fill="none" xmlns="http://www.w3.org/2000/svg">
<path d="M10.1253 21.1253L9.24967 20.2497L18.4433 11.056C18.6851 10.8142 19.0771 10.8142 19.3189 11.056C19.5607 11.2978 19.5607 11.6898 19.3189 11.9316L10.1253 21.1253Z" fill="black"/>
<path d="M10.1253 21.1253L11.0009 20.2497L1.8072 11.056C1.56542 10.8142 1.1734 10.8142 0.931615 11.056C0.689828 11.2978 0.689828 11.6898 0.931615 11.9316L10.1253 21.1253Z" fill="black"/>
<path fill-rule="evenodd" clip-rule="evenodd" d="M10.1562 0.375C10.5014 0.375 10.7812 0.654822 10.7812 1V19.75H9.53122V1C9.53122 0.654822 9.81104 0.375 10.1562 0.375Z" fill="black"/>
<path d="M10.1253 21.1253L9.24967 20.2497L18.4433 11.056C18.6851 10.8142 19.0771 10.8142 19.3189 11.056C19.5607 11.2978 19.5607 11.6898 19.3189 11.9316L10.1253 21.1253ZM10.1253 21.1253L11.0009 20.2497L1.8072 11.056C1.56542 10.8142 1.1734 10.8142 0.931615 11.056C0.689828 11.2978 0.689828 11.6898 0.931615 11.9316L10.1253 21.1253ZM10.7812 1C10.7812 0.654822 10.5014 0.375 10.1562 0.375C9.81104 0.375 9.53122 0.654822 9.53122 1V19.75H10.7812V1Z" stroke="black" stroke-width="0.5"/>
</svg>
