<svg width="14" height="14" viewBox="0 0 14 14" fill="none" xmlns="http://www.w3.org/2000/svg">
<path fill-rule="evenodd" clip-rule="evenodd" d="M5.68322 11.3664C2.54447 11.3664 0 8.82198 0 5.68322C0 2.54447 2.54447 0 5.68322 0C8.82198 0 11.3664 2.54447 11.3664 5.68322C11.3664 6.99655 10.921 8.20582 10.1729 9.16819L14 12.9953L12.9954 14L9.16823 10.1729C8.20585 10.921 6.99656 11.3664 5.68322 11.3664ZM9.94561 5.68322C9.94561 8.03729 8.03726 9.94564 5.68319 9.94564C3.32912 9.94564 1.42077 8.03729 1.42077 5.68322C1.42077 3.32916 3.32912 1.42081 5.68319 1.42081C8.03726 1.42081 9.94561 3.32916 9.94561 5.68322Z" fill="black"/>
</svg>
