<svg width="14" height="11" viewBox="0 0 14 11" fill="none" xmlns="http://www.w3.org/2000/svg">
<path d="M12.7325 0.172898L13.8304 1.27967C14.0578 1.50889 14.0563 1.87905 13.8272 2.10646L5.41899 10.4472C5.18977 10.6746 4.81961 10.6731 4.59225 10.4438L0.169586 5.98538C-0.0578294 5.75612 -0.0563193 5.38596 0.172898 5.15859L1.27972 4.06068C1.50894 3.83332 1.8791 3.83483 2.10646 4.06405L5.0194 7.00061L11.9058 0.169586C12.135 -0.0578294 12.5052 -0.0563193 12.7325 0.172898Z" fill="white"/>
<path d="M12.7325 0.172898L13.8304 1.27967C14.0578 1.50889 14.0563 1.87905 13.8272 2.10646L5.41899 10.4472C5.18977 10.6746 4.81961 10.6731 4.59225 10.4438L0.169586 5.98538C-0.0578294 5.75612 -0.0563193 5.38596 0.172898 5.15859L1.27972 4.06068C1.50894 3.83332 1.8791 3.83483 2.10646 4.06405L5.0194 7.00061L11.9058 0.169586C12.135 -0.0578294 12.5052 -0.0563193 12.7325 0.172898Z" fill="url(#paint0_linear)"/>
<defs>
<linearGradient id="paint0_linear" x1="7" y1="0" x2="7" y2="10.6167" gradientUnits="userSpaceOnUse">
<stop stop-color="white"/>
<stop offset="1" stop-color="white" stop-opacity="0"/>
</linearGradient>
</defs>
</svg>
