<svg width="19" height="12" viewBox="0 0 19 12" fill="none" xmlns="http://www.w3.org/2000/svg">
<mask id="path-1-outside-1" maskUnits="userSpaceOnUse" x="-0.25" y="0.216797" width="19" height="12" fill="black">
<rect fill="white" x="-0.25" y="0.216797" width="19" height="12"/>
<path d="M9.49998 1.2168L8.68277 2.03401L17.2635 10.6148C17.4892 10.8405 17.8551 10.8405 18.0807 10.6148C18.3064 10.3891 18.3064 10.0232 18.0807 9.79757L9.49998 1.2168Z"/>
<path d="M9.49998 1.2168L10.3172 2.03401L1.73647 10.6148C1.5108 10.8404 1.14492 10.8404 0.919251 10.6148C0.693583 10.3891 0.693583 10.0232 0.919251 9.79756L9.49998 1.2168Z"/>
</mask>
<path d="M9.49998 1.2168L8.68277 2.03401L17.2635 10.6148C17.4892 10.8405 17.8551 10.8405 18.0807 10.6148C18.3064 10.3891 18.3064 10.0232 18.0807 9.79757L9.49998 1.2168Z" fill="black"/>
<path d="M9.49998 1.2168L10.3172 2.03401L1.73647 10.6148C1.5108 10.8404 1.14492 10.8404 0.919251 10.6148C0.693583 10.3891 0.693583 10.0232 0.919251 9.79756L9.49998 1.2168Z" fill="black"/>
<path d="M9.49998 1.2168L9.14643 0.863244L9.49997 0.509698L9.85353 0.863236L9.49998 1.2168ZM8.68277 2.03401L8.32921 2.38757L7.97566 2.03401L8.32921 1.68046L8.68277 2.03401ZM18.0807 9.79757L17.7272 10.1511L18.0807 9.79757ZM17.2635 10.6148L16.91 10.9683L17.2635 10.6148ZM10.3172 2.03401L10.6708 1.68045L11.0243 2.03401L10.6708 2.38757L10.3172 2.03401ZM0.919251 9.79756L1.2728 10.1511L1.2728 10.1511L0.919251 9.79756ZM1.73647 10.6148L2.09002 10.9683L1.73647 10.6148ZM9.85354 1.57035L9.03632 2.38757L8.32921 1.68046L9.14643 0.863244L9.85354 1.57035ZM9.03632 1.68046L17.6171 10.2612L16.91 10.9683L8.32921 2.38757L9.03632 1.68046ZM17.7272 10.1511L9.14643 1.57035L9.85354 0.863244L18.4343 9.44401L17.7272 10.1511ZM17.7272 10.2612C17.7576 10.2308 17.7576 10.1815 17.7272 10.1511L18.4343 9.44401C18.8552 9.86494 18.8552 10.5474 18.4343 10.9683L17.7272 10.2612ZM17.6171 10.2612C17.6475 10.2916 17.6968 10.2916 17.7272 10.2612L18.4343 10.9683C18.0134 11.3893 17.3309 11.3893 16.91 10.9683L17.6171 10.2612ZM9.85353 0.863236L10.6708 1.68045L9.96369 2.38757L9.14644 1.57036L9.85353 0.863236ZM10.6708 2.38757L2.09002 10.9683L1.38291 10.2612L9.96368 1.68046L10.6708 2.38757ZM0.565696 9.44401L9.14643 0.863245L9.85354 1.57035L1.2728 10.1511L0.565696 9.44401ZM0.565697 10.9683C0.144767 10.5474 0.144767 9.86494 0.565697 9.44401L1.2728 10.1511C1.2424 10.1815 1.2424 10.2308 1.2728 10.2612L0.565697 10.9683ZM2.09002 10.9683C1.66909 11.3893 0.986627 11.3893 0.565697 10.9683L1.2728 10.2612C1.30321 10.2916 1.35251 10.2916 1.38291 10.2612L2.09002 10.9683Z" fill="black" mask="url(#path-1-outside-1)"/>
</svg>
